<?xml version="1.0" encoding="UTF-8"?><svg id="Layer_1" xmlns="http://www.w3.org/2000/svg" viewBox="0 0 478.27 602.4"><path d="m142.34,1c11.76,0,25.78,2.29,32.47,3.87,10.64,2.5,20.27,6.67,30.52,10.31,15.81,5.61,29.12,15.54,39.86,28.33,10.97,13.07,18.2,28.31,22.16,44.96,3.53,14.85,5.14,29.95,4.91,45.19-.1,6.65-1.19,13.29-1.92,20.87,7.08-3.91,13.47-7.73,20.1-11.06,17.69-8.88,35.84-16.77,55.24-21.07,17.03-3.77,34.14-4.6,51.65-1.68,19.48,3.25,35.34,12.26,48.49,26.36,10.51,11.28,18.14,24.43,22.83,40.31-3.23-.82-5.96-1.42-8.63-2.21-17.55-5.19-35.23-9.85-53.57-11.15-12.65-.9-25.38-2.41-38-1.88-23.79,1-46.68,6.16-66.83,19.87-2.05,1.39-3.81,3.21-5.57,4.72,9.21,0,18,0,26.79,0,8.04,0,16.09-.24,24.11.14,7.02.33,13.99,1.59,21.01,2.05,13.89.9,26.94,4.89,39.83,9.83,16.99,6.51,31.37,16.8,43.13,30.45,10.99,12.76,18.36,27.71,22.37,44.07,1.96,7.99,3.04,16.24,3.98,24.43.77,6.7,1.02,13.49,1.01,20.24,0,5.58-.73,11.15-1.24,18.11-3.23-4-5.86-7.26-8.51-10.51-7.13-8.77-14.19-17.61-21.45-26.29-4.75-5.68-9.44-11.5-14.79-16.6-9.05-8.64-17.99-17.61-28.09-24.9-12.38-8.94-25.57-16.9-39.01-24.17-16.28-8.81-34.11-11.9-52.6-10.58-5.49.39-10.95,1.27-16.4,2.08-.94.14-1.76,1.07-2.64,1.63.54.76.97,1.65,1.65,2.25,19.76,17.62,37.27,37.1,49.38,60.87,6.28,12.34,10,25.32,11.02,39.44,1.72,23.69-6.47,43.51-20.63,61.54-12.28,15.63-27.81,27.38-45.28,37.39,0-1.25-.18-2.2.03-3.05,3.83-15.54,8.84-30.9,11.21-46.65,1.84-12.23.88-24.98.31-37.46-.95-20.59-7.23-39.81-16.93-57.9-6.21-11.57-13.64-22.29-22.93-31.68-7.81-7.91-15.51-15.94-23.08-24.09-6.76-7.27-14.53-13.1-23.42-17.43-15.49-7.53-30.8-15.48-46.6-22.29-13.49-5.81-27.94-8.67-42.51-10.72-21.21-2.99-42.49-5.3-63.93-4.65-15.14.46-30.27,1.63-45.38,2.76-5.3.4-10.55,1.62-16.46,1.63,3.94-3.53,7.55-7.55,11.89-10.49,13.12-8.89,26.03-18.29,39.96-25.72,14.46-7.71,29.96-13.7,46.55-15.41,11.11-1.15,22.38-2.79,33.43-2.01,26.86,1.9,51.99,9.59,73.63,26.49.33.26.87.25,2.17.6-.44-6.06-.56-11.75-1.33-17.34-1.97-14.19-5.67-27.91-12.39-40.66-9.22-17.49-21.71-32.24-36.78-45.06-14.11-12-29.72-21.53-46.19-29.7-7.32-3.63-15.12-6.29-22.7-9.4-1.6-.66-3.16-1.38-4.74-2.07,0-.46-.02-.92-.03-1.37,10.64-3.03,21.26-6.09,31.91-9.08,3.3-.93,6.66-1.66,9.99-2.48"/><path d="m179.33,602.4c-7.63-.47-15.16-1.01-22.69-1.39-21.27-1.05-42.54-1.95-63.79-3.24-1.58-.1-4.07-2.72-4.31-4.42-1-7.13-1.62-14.35-1.8-21.55-.36-14.83-.34-29.66-.46-44.5,0-1.16.03-2.32.08-3.48.66-14.85.69-29.77,2.18-44.54,1.47-14.53,4.54-28.9,6.68-43.37,3.77-25.42,10.87-49.99,19.19-74.21,13.23-38.48,31.14-74.69,54.27-108.18,7.23-10.47,15.74-20.06,23.66-30.06,1.75-2.21,3.38-2.3,6.11-1.03,13.74,6.43,27.07,13.31,37.05,25.23,2.86,3.41,5.84,6.72,9.44,10.84-4.83,4.64-9.88,9.26-14.68,14.14-14.62,14.87-24.26,32.91-32.81,51.67-8.97,19.7-14.3,40.56-18.87,61.55-2.69,12.35-3.44,25.12-5.21,37.68-3.99,28.32-3.04,56.82-2.87,85.26.08,13.26,1.83,26.52,2.86,39.77.61,7.84,1.14,15.7,2.02,23.51,1.11,9.83,2.53,19.62,3.93,30.31Z"/></svg>